<svg width="99" height="99" viewBox="0 0 99 99" fill="none" xmlns="http://www.w3.org/2000/svg">
<path d="M45.355 48.2417C46.3542 48.2417 47.1633 47.4325 47.1633 46.4334C47.1633 45.4343 46.3542 44.6251 45.355 44.6251C44.3559 44.6251 43.5468 45.4343 43.5468 46.4334C43.5468 47.4325 44.357 48.2417 45.355 48.2417Z" fill="#558FF5"/>
<path d="M50.0813 47.9144C50.8992 47.9144 51.5623 47.2513 51.5623 46.4334C51.5623 45.6155 50.8992 44.9524 50.0813 44.9524C49.2634 44.9524 48.6003 45.6155 48.6003 46.4334C48.6003 47.2513 49.2634 47.9144 50.0813 47.9144Z" fill="#558FF5"/>
<path d="M46.8157 52.4088C47.6336 52.4088 48.2966 51.7458 48.2966 50.9278C48.2966 50.1099 47.6336 49.4469 46.8157 49.4469C45.9977 49.4469 45.3347 50.1099 45.3347 50.9278C45.3347 51.7458 45.9977 52.4088 46.8157 52.4088Z" fill="#558FF5"/>
<path d="M41.5324 50.4031C42.1909 50.4031 42.7247 49.8693 42.7247 49.2108C42.7247 48.5523 42.1909 48.0185 41.5324 48.0185C40.8739 48.0185 40.3401 48.5523 40.3401 49.2108C40.3401 49.8693 40.8739 50.4031 41.5324 50.4031Z" fill="#558FF5"/>
<path d="M41.5324 44.6251C42.0679 44.6251 42.5026 44.1905 42.5026 43.655C42.5026 43.1195 42.0679 42.6848 41.5324 42.6848C40.9969 42.6848 40.5623 43.1184 40.5623 43.655C40.5633 44.1916 40.9969 44.6251 41.5324 44.6251Z" fill="#558FF5"/>
<path d="M46.8156 43.1312C47.4741 43.1312 48.0079 42.5974 48.0079 41.9389C48.0079 41.2805 47.4741 40.7466 46.8156 40.7466C46.1571 40.7466 45.6233 41.2805 45.6233 41.9389C45.6233 42.5974 46.1571 43.1312 46.8156 43.1312Z" fill="#558FF5"/>
<path d="M54.8064 47.4036C55.342 47.4036 55.7766 46.9689 55.7766 46.4334C55.7766 45.8979 55.342 45.4633 54.8064 45.4633C54.2709 45.4633 53.8363 45.8968 53.8363 46.4334C53.8363 46.9689 54.2709 47.4036 54.8064 47.4036Z" fill="#558FF5"/>
<path d="M53.0013 53.2856C53.7182 53.2856 54.2988 52.705 54.2988 51.9881C54.2988 51.2713 53.7182 50.6907 53.0013 50.6907C52.2844 50.6907 51.7039 51.2713 51.7039 51.9881C51.7039 52.705 52.2844 53.2856 53.0013 53.2856Z" fill="#558FF5"/>
<path d="M48.2763 56.3914C48.8118 56.3914 49.2465 55.9567 49.2465 55.4212C49.2465 54.8857 48.8118 54.4511 48.2763 54.4511C47.7408 54.4511 47.3062 54.8857 47.3062 55.4212C47.3062 55.9567 47.7408 56.3914 48.2763 56.3914Z" fill="#558FF5"/>
<path d="M42.435 56.2733C42.905 56.2733 43.2871 55.8923 43.2871 55.4212C43.2871 54.9511 42.9061 54.5691 42.435 54.5691C41.9649 54.5691 41.5829 54.9501 41.5829 55.4212C41.5829 55.8923 41.9649 56.2733 42.435 56.2733Z" fill="#558FF5"/>
<path d="M37.7098 52.8145C38.1659 52.8145 38.5351 52.4454 38.5351 51.9893C38.5351 51.5332 38.1659 51.164 37.7098 51.164C37.2537 51.164 36.8845 51.5332 36.8845 51.9893C36.8845 52.4443 37.2537 52.8145 37.7098 52.8145Z" fill="#558FF5"/>
<path d="M35.9047 47.2715C36.3683 47.2715 36.7428 46.8959 36.7428 46.4334C36.7428 45.9698 36.3672 45.5952 35.9047 45.5952C35.4421 45.5952 35.0665 45.9709 35.0665 46.4334C35.0665 46.897 35.4421 47.2715 35.9047 47.2715Z" fill="#558FF5"/>
<path d="M37.7098 41.6911C38.1585 41.6911 38.5222 41.3273 38.5222 40.8787C38.5222 40.43 38.1585 40.0663 37.7098 40.0663C37.2612 40.0663 36.8975 40.43 36.8975 40.8787C36.8975 41.3273 37.2612 41.6911 37.7098 41.6911Z" fill="#558FF5"/>
<path d="M42.4349 38.258C42.8836 38.258 43.2473 37.8943 43.2473 37.4456C43.2473 36.9969 42.8836 36.6332 42.4349 36.6332C41.9863 36.6332 41.6226 36.9969 41.6226 37.4456C41.6226 37.8943 41.9863 38.258 42.4349 38.258Z" fill="#558FF5"/>
<path d="M48.2763 38.2837C48.7399 38.2837 49.1144 37.9081 49.1144 37.4456C49.1144 36.982 48.7388 36.6074 48.2763 36.6074C47.8127 36.6074 47.4381 36.983 47.4381 37.4456C47.437 37.9081 47.8127 38.2837 48.2763 38.2837Z" fill="#558FF5"/>
<path d="M53.0015 41.9787C53.6089 41.9787 54.1025 41.4861 54.1025 40.8776C54.1025 40.2702 53.61 39.7765 53.0015 39.7765C52.3941 39.7765 51.9004 40.2691 51.9004 40.8776C51.9004 41.4861 52.3941 41.9787 53.0015 41.9787Z" fill="#558FF5"/>
<path d="M59.5317 47.2458C59.9804 47.2458 60.3442 46.8821 60.3442 46.4334C60.3442 45.9848 59.9804 45.621 59.5317 45.621C59.0831 45.621 58.7194 45.9848 58.7194 46.4334C58.7194 46.8821 59.0831 47.2458 59.5317 47.2458Z" fill="#558FF5"/>
<path d="M58.3061 53.1032C58.8051 53.1032 59.2097 52.6986 59.2097 52.1985C59.2097 51.6995 58.8051 51.2949 58.3061 51.2949C57.807 51.2949 57.4025 51.6995 57.4025 52.1985C57.4025 52.6986 57.807 53.1032 58.3061 53.1032Z" fill="#558FF5"/>
<path d="M54.8409 57.7811C55.2895 57.7811 55.6532 57.4174 55.6532 56.9687C55.6532 56.5201 55.2895 56.1563 54.8409 56.1563C54.3922 56.1563 54.0284 56.5201 54.0284 56.9687C54.0284 57.4174 54.3922 57.7811 54.8409 57.7811Z" fill="#558FF5"/>
<path d="M49.7358 60.7409C50.1919 60.7409 50.5611 60.3718 50.5611 59.9157C50.5611 59.4596 50.1919 59.0904 49.7358 59.0904C49.2797 59.0904 48.9105 59.4596 48.9105 59.9157C48.9105 60.3718 49.2807 60.7409 49.7358 60.7409Z" fill="#558FF5"/>
<path d="M43.8741 61.3709C44.3377 61.3709 44.7123 60.9953 44.7123 60.5327C44.7123 60.0691 44.3367 59.6946 43.8741 59.6946C43.4116 59.6946 43.036 60.0702 43.036 60.5327C43.0349 60.9953 43.4105 61.3709 43.8741 61.3709Z" fill="#558FF5"/>
<path d="M38.2679 59.5358C38.724 59.5358 39.0932 59.1666 39.0932 58.7105C39.0932 58.2544 38.724 57.8852 38.2679 57.8852C37.8118 57.8852 37.4426 58.2544 37.4426 58.7105C37.4416 59.1666 37.8118 59.5358 38.2679 59.5358Z" fill="#558FF5"/>
<path d="M33.8873 55.8795C34.5022 55.8795 35.0012 55.3804 35.0012 54.7655C35.0012 54.1506 34.5022 53.6516 33.8873 53.6516C33.2723 53.6516 32.7733 54.1506 32.7733 54.7655C32.7733 55.3815 33.2723 55.8795 33.8873 55.8795Z" fill="#558FF5"/>
<path d="M31.4897 50.2979C31.9965 50.2979 32.4073 49.8871 32.4073 49.3803C32.4073 48.8736 31.9965 48.4628 31.4897 48.4628C30.983 48.4628 30.5721 48.8736 30.5721 49.3803C30.5721 49.8871 30.983 50.2979 31.4897 50.2979Z" fill="#558FF5"/>
<path d="M31.4896 44.4684C32.0327 44.4684 32.4726 44.0284 32.4726 43.4854C32.4726 42.9424 32.0327 42.5024 31.4896 42.5024C30.9466 42.5024 30.5066 42.9424 30.5066 43.4854C30.5066 44.0284 30.9466 44.4684 31.4896 44.4684Z" fill="#558FF5"/>
<path d="M33.8871 39.3462C34.575 39.3462 35.132 38.7892 35.132 38.1013C35.132 37.4134 34.575 36.8564 33.8871 36.8564C33.1992 36.8564 32.6422 37.4134 32.6422 38.1013C32.6422 38.7881 33.1992 39.3462 33.8871 39.3462Z" fill="#558FF5"/>
<path d="M38.2678 35.4012C38.9557 35.4012 39.5127 34.8443 39.5127 34.1564C39.5127 33.4684 38.9557 32.9115 38.2678 32.9115C37.5799 32.9115 37.0229 33.4684 37.0229 34.1564C37.0229 34.8443 37.5799 35.4012 38.2678 35.4012Z" fill="#558FF5"/>
<path d="M43.8741 33.3182C44.4171 33.3182 44.8572 32.8782 44.8572 32.3352C44.8572 31.7921 44.4171 31.3521 43.8741 31.3521C43.3311 31.3521 42.8911 31.7921 42.8911 32.3352C42.8911 32.8782 43.3311 33.3182 43.8741 33.3182Z" fill="#558FF5"/>
<path d="M49.7357 33.9074C50.2638 33.9074 50.6919 33.4793 50.6919 32.9512C50.6919 32.4231 50.2638 31.995 49.7357 31.995C49.2076 31.995 48.7795 32.4231 48.7795 32.9512C48.7795 33.4793 49.2076 33.9074 49.7357 33.9074Z" fill="#558FF5"/>
<path d="M54.8409 36.7244C55.297 36.7244 55.6662 36.3552 55.6662 35.8991C55.6662 35.4431 55.297 35.0739 54.8409 35.0739C54.3848 35.0739 54.0156 35.4431 54.0156 35.8991C54.0156 36.3552 54.3859 36.7244 54.8409 36.7244Z" fill="#558FF5"/>
<path d="M58.3061 41.5193C58.7761 41.5193 59.1582 41.1384 59.1582 40.6673C59.1582 40.1972 58.7772 39.8152 58.3061 39.8152C57.836 39.8152 57.454 40.1961 57.454 40.6673C57.454 41.1373 57.836 41.5193 58.3061 41.5193Z" fill="#558FF5"/>
<path d="M64.2568 47.5731C64.8867 47.5731 65.3965 47.0623 65.3965 46.4334C65.3965 45.8034 64.8857 45.2937 64.2568 45.2937C63.6268 45.2937 63.1171 45.8045 63.1171 46.4334C63.1171 47.0633 63.6279 47.5731 64.2568 47.5731Z" fill="#558FF5"/>
<path d="M63.3318 53.4401C63.9757 53.4401 64.4984 52.9186 64.4984 52.2736C64.4984 51.6297 63.9757 51.1071 63.3318 51.1071C62.6879 51.1071 62.1653 51.6297 62.1653 52.2736C62.1653 52.9186 62.6879 53.4401 63.3318 53.4401Z" fill="#558FF5"/>
<path d="M60.6467 58.4604C61.1534 58.4604 61.5642 58.0496 61.5642 57.5429C61.5642 57.0361 61.1534 56.6253 60.6467 56.6253C60.1399 56.6253 59.7291 57.0361 59.7291 57.5429C59.7291 58.0496 60.1399 58.4604 60.6467 58.4604Z" fill="#558FF5"/>
<path d="M56.4655 62.6426C56.9721 62.6426 57.3831 62.2316 57.3831 61.725C57.3831 61.2185 56.9721 60.8075 56.4655 60.8075C55.959 60.8075 55.548 61.2185 55.548 61.725C55.548 62.2316 55.959 62.6426 56.4655 62.6426Z" fill="#558FF5"/>
<path d="M51.1963 65.5756C51.8402 65.5756 52.3628 65.054 52.3628 64.4091C52.3628 63.7652 51.8413 63.2425 51.1963 63.2425C50.5524 63.2425 50.0298 63.7641 50.0298 64.4091C50.0309 65.054 50.5524 65.5756 51.1963 65.5756Z" fill="#558FF5"/>
<path d="M45.3551 66.4749C45.9851 66.4749 46.4949 65.9641 46.4949 65.3352C46.4949 64.7052 45.984 64.1955 45.3551 64.1955C44.7263 64.1955 44.2155 64.7063 44.2155 65.3352C44.2155 65.9641 44.7263 66.4749 45.3551 66.4749Z" fill="#558FF5"/>
<path d="M39.5148 65.6807C40.2167 65.6807 40.7854 65.1119 40.7854 64.4101C40.7854 63.7082 40.2167 63.1395 39.5148 63.1395C38.8129 63.1395 38.2441 63.7082 38.2441 64.4101C38.2431 65.1119 38.8129 65.6807 39.5148 65.6807Z" fill="#558FF5"/>
<path d="M34.2456 63.1663C35.0419 63.1663 35.6869 62.5213 35.6869 61.725C35.6869 60.9287 35.0419 60.2838 34.2456 60.2838C33.4493 60.2838 32.8043 60.9287 32.8043 61.725C32.8043 62.5213 33.4493 63.1663 34.2456 63.1663Z" fill="#558FF5"/>
<path d="M30.0635 58.6569C30.6785 58.6569 31.1775 58.1578 31.1775 57.5429C31.1775 56.928 30.6785 56.429 30.0635 56.429C29.4486 56.429 28.9496 56.928 28.9496 57.5429C28.9496 58.1578 29.4486 58.6569 30.0635 58.6569Z" fill="#558FF5"/>
<path d="M27.3794 53.7417C28.1896 53.7417 28.8464 53.0849 28.8464 52.2736C28.8464 51.4634 28.1896 50.8055 27.3794 50.8055C26.5691 50.8055 25.9124 51.4623 25.9124 52.2736C25.9113 53.0849 26.5691 53.7417 27.3794 53.7417Z" fill="#558FF5"/>
<path d="M26.4543 47.8747C27.2503 47.8747 27.8956 47.2294 27.8956 46.4334C27.8956 45.6374 27.2503 44.9921 26.4543 44.9921C25.6583 44.9921 25.0131 45.6374 25.0131 46.4334C25.0131 47.2294 25.6583 47.8747 26.4543 47.8747Z" fill="#558FF5"/>
<path d="M27.3795 42.1128C28.2187 42.1128 28.8991 41.4324 28.8991 40.5932C28.8991 39.754 28.2187 39.0736 27.3795 39.0736C26.5402 39.0736 25.8599 39.754 25.8599 40.5932C25.8588 41.4324 26.5402 42.1128 27.3795 42.1128Z" fill="#558FF5"/>
<path d="M30.0634 36.9605C30.9679 36.9605 31.7011 36.2273 31.7011 35.3228C31.7011 34.4184 30.9679 33.6852 30.0634 33.6852C29.159 33.6852 28.4258 34.4184 28.4258 35.3228C28.4258 36.2273 29.159 36.9605 30.0634 36.9605Z" fill="#558FF5"/>
<path d="M34.2456 32.7794C35.1503 32.7794 35.8832 32.0465 35.8832 31.1418C35.8832 30.2371 35.1503 29.5041 34.2456 29.5041C33.3409 29.5041 32.6079 30.2371 32.6079 31.1418C32.6079 32.0465 33.3409 32.7794 34.2456 32.7794Z" fill="#558FF5"/>
<path d="M39.5149 29.9774C40.3541 29.9774 41.0345 29.297 41.0345 28.4578C41.0345 27.6186 40.3541 26.9382 39.5149 26.9382C38.6756 26.9382 37.9952 27.6186 37.9952 28.4578C37.9942 29.2959 38.6756 29.9774 39.5149 29.9774Z" fill="#558FF5"/>
<path d="M45.3551 28.9729C46.1511 28.9729 46.7964 28.3276 46.7964 27.5316C46.7964 26.7356 46.1511 26.0904 45.3551 26.0904C44.5591 26.0904 43.9138 26.7356 43.9138 27.5316C43.9138 28.3276 44.5591 28.9729 45.3551 28.9729Z" fill="#558FF5"/>
<path d="M51.1962 29.9248C52.0065 29.9248 52.6644 29.268 52.6644 28.4578C52.6644 27.6476 52.0076 26.9897 51.1962 26.9897C50.386 26.9897 49.7292 27.6465 49.7292 28.4578C49.7292 29.268 50.386 29.9248 51.1962 29.9248Z" fill="#558FF5"/>
<path d="M56.4656 32.2557C57.0806 32.2557 57.5796 31.7567 57.5796 31.1418C57.5796 30.5269 57.0806 30.0278 56.4656 30.0278C55.8507 30.0278 55.3517 30.5269 55.3517 31.1418C55.3517 31.7567 55.8507 32.2557 56.4656 32.2557Z" fill="#558FF5"/>
<path d="M60.6466 36.7641C61.4426 36.7641 62.0879 36.1188 62.0879 35.3228C62.0879 34.5269 61.4426 33.8816 60.6466 33.8816C59.8506 33.8816 59.2053 34.5269 59.2053 35.3228C59.2053 36.1188 59.8506 36.7641 60.6466 36.7641Z" fill="#558FF5"/>
<path d="M63.3318 41.8638C64.0336 41.8638 64.6024 41.2951 64.6024 40.5932C64.6024 39.8914 64.0336 39.3226 63.3318 39.3226C62.6299 39.3226 62.0612 39.8914 62.0612 40.5932C62.0612 41.2951 62.6299 41.8638 63.3318 41.8638Z" fill="#558FF5"/>
<path d="M68.982 48.1891C69.9522 48.1891 70.7377 47.4036 70.7377 46.4334C70.7377 45.4633 69.9511 44.6777 68.982 44.6777C68.0119 44.6777 67.2263 45.4633 67.2263 46.4334C67.2263 47.4036 68.0129 48.1891 68.982 48.1891Z" fill="#558FF5"/>
<path d="M68.2404 54.0916C69.2245 54.0916 70.0219 53.2942 70.0219 52.309C70.0219 51.3239 69.2245 50.5265 68.2404 50.5265C67.2563 50.5265 66.4579 51.3239 66.4579 52.309C66.4579 53.2942 67.2563 54.0916 68.2404 54.0916Z" fill="#558FF5"/>
<path d="M66.0598 59.1655C66.8054 59.1655 67.4098 58.5611 67.4098 57.8155C67.4098 57.0699 66.8054 56.4654 66.0598 56.4654C65.3142 56.4654 64.7097 57.0699 64.7097 57.8155C64.7097 58.5611 65.3142 59.1655 66.0598 59.1655Z" fill="#558FF5"/>
<path d="M62.5784 63.8263C63.2513 63.8263 63.7975 63.2811 63.7975 62.6083C63.7975 61.9354 63.2523 61.3891 62.5784 61.3891C61.9055 61.3891 61.3593 61.9343 61.3593 62.6083C61.3603 63.2801 61.9055 63.8263 62.5784 63.8263Z" fill="#558FF5"/>
<path d="M58.0152 67.7316C58.7611 67.7316 59.3653 67.1274 59.3653 66.3815C59.3653 65.6357 58.7611 65.0315 58.0152 65.0315C57.2704 65.0315 56.6652 65.6357 56.6652 66.3815C56.6662 67.1274 57.2704 67.7316 58.0152 67.7316Z" fill="#558FF5"/>
<path d="M52.6569 70.07C53.3012 70.07 53.8234 69.5477 53.8234 68.9035C53.8234 68.2592 53.3012 67.7369 52.6569 67.7369C52.0126 67.7369 51.4904 68.2592 51.4904 68.9035C51.4904 69.5477 52.0126 70.07 52.6569 70.07Z" fill="#558FF5"/>
<path d="M47.1221 71.7558C48.0791 71.5999 48.7286 70.6976 48.5727 69.7406C48.4168 68.7835 47.5145 68.1341 46.5575 68.29C45.6004 68.4459 44.951 69.3482 45.1069 70.3052C45.2628 71.2623 46.165 71.9117 47.1221 71.7558Z" fill="#558FF5"/>
<path d="M40.9282 71.4898C41.9488 71.4898 42.7762 70.6624 42.7762 69.6418C42.7762 68.6212 41.9488 67.7938 40.9282 67.7938C39.9076 67.7938 39.0802 68.6212 39.0802 69.6418C39.0802 70.6624 39.9076 71.4898 40.9282 71.4898Z" fill="#558FF5"/>
<path d="M35.2962 69.3317C36.1355 69.3317 36.8158 68.6513 36.8158 67.8121C36.8158 66.9728 36.1355 66.2924 35.2962 66.2924C34.457 66.2924 33.7766 66.9728 33.7766 67.8121C33.7755 68.6513 34.4559 69.3317 35.2962 69.3317Z" fill="#558FF5"/>
<path d="M30.2952 66.5382C31.3447 66.5382 32.1947 65.6872 32.1947 64.6387C32.1947 63.5902 31.3437 62.7392 30.2952 62.7392C29.2456 62.7392 28.3956 63.5902 28.3956 64.6387C28.3956 65.6872 29.2456 66.5382 30.2952 66.5382Z" fill="#558FF5"/>
<path d="M26.2408 62.2734C27.3193 62.2734 28.1929 61.3999 28.1929 60.3213C28.1929 59.2428 27.3193 58.3692 26.2408 58.3692C25.1623 58.3692 24.2887 59.2428 24.2887 60.3213C24.2887 61.3988 25.1623 62.2734 26.2408 62.2734Z" fill="#558FF5"/>
<path d="M23.3883 57.3197C24.5967 57.3197 25.5765 56.3399 25.5765 55.1315C25.5765 53.9231 24.5967 52.9433 23.3883 52.9433C22.1799 52.9433 21.2001 53.9231 21.2001 55.1315C21.2001 56.3399 22.1788 57.3197 23.3883 57.3197Z" fill="#558FF5"/>
<path d="M21.9148 51.4515C23.0513 51.4515 23.9721 50.5308 23.9721 49.3943C23.9721 48.2578 23.0513 47.337 21.9148 47.337C20.7783 47.337 19.8575 48.2578 19.8575 49.3943C19.8575 50.5308 20.7783 51.4515 21.9148 51.4515Z" fill="#558FF5"/>
<path d="M21.9149 45.5953C23.0872 45.5953 24.0376 44.6449 24.0376 43.4725C24.0376 42.3002 23.0872 41.3498 21.9149 41.3498C20.7425 41.3498 19.7921 42.3002 19.7921 43.4725C19.7921 44.6449 20.7425 45.5953 21.9149 45.5953Z" fill="#558FF5"/>
<path d="M23.3884 40.0019C24.6401 40.0019 25.6549 38.9871 25.6549 37.7353C25.6549 36.4836 24.6401 35.4688 23.3884 35.4688C22.1366 35.4688 21.1218 36.4836 21.1218 37.7353C21.1218 38.9871 22.1366 40.0019 23.3884 40.0019Z" fill="#558FF5"/>
<path d="M26.2409 34.6425C27.3988 34.6425 28.3368 33.7034 28.3368 32.5455C28.3368 31.3875 27.3978 30.4485 26.2409 30.4485C25.0829 30.4485 24.1439 31.3875 24.1439 32.5455C24.145 33.7034 25.0829 34.6425 26.2409 34.6425Z" fill="#558FF5"/>
<path d="M30.2952 30.3251C31.4532 30.3251 32.3922 29.3861 32.3922 28.2292C32.3922 27.0712 31.4532 26.1322 30.2952 26.1322C29.1373 26.1322 28.1982 27.0712 28.1982 28.2292C28.1982 29.3861 29.1373 30.3251 30.2952 30.3251Z" fill="#558FF5"/>
<path d="M35.2963 27.3213C36.5481 27.3213 37.5629 26.3065 37.5629 25.0547C37.5629 23.803 36.5481 22.7882 35.2963 22.7882C34.0445 22.7882 33.0298 23.803 33.0298 25.0547C33.0298 26.3065 34.0445 27.3213 35.2963 27.3213Z" fill="#558FF5"/>
<path d="M40.9283 25.3477C42.1006 25.3477 43.051 24.3973 43.051 23.225C43.051 22.0526 42.1006 21.1022 40.9283 21.1022C39.7559 21.1022 38.8055 22.0526 38.8055 23.225C38.8055 24.3973 39.7559 25.3477 40.9283 25.3477Z" fill="#558FF5"/>
<path d="M46.8392 24.9099C47.9757 24.9099 48.8965 23.9891 48.8965 22.8526C48.8965 21.7161 47.9757 20.7953 46.8392 20.7953C45.7028 20.7953 44.782 21.7161 44.782 22.8526C44.782 23.9891 45.7028 24.9099 46.8392 24.9099Z" fill="#558FF5"/>
<path d="M52.6569 26.0464C53.8073 26.0464 54.7399 25.1138 54.7399 23.9633C54.7399 22.8129 53.8073 21.8803 52.6569 21.8803C51.5064 21.8803 50.5739 22.8129 50.5739 23.9633C50.5728 25.1138 51.5064 26.0464 52.6569 26.0464Z" fill="#558FF5"/>
<path d="M58.0152 28.1229C58.9199 28.1229 59.6529 27.39 59.6529 26.4853C59.6529 25.5806 58.9199 24.8476 58.0152 24.8476C57.1105 24.8476 56.3776 25.5806 56.3776 26.4853C56.3776 27.3889 57.1105 28.1229 58.0152 28.1229Z" fill="#558FF5"/>
<path d="M62.5784 32.2118C63.657 32.2118 64.5305 31.3371 64.5305 30.2597C64.5305 29.1811 63.657 28.3076 62.5784 28.3076C61.4999 28.3076 60.6263 29.1822 60.6263 30.2597C60.6263 31.3382 61.501 32.2118 62.5784 32.2118Z" fill="#558FF5"/>
<path d="M66.0598 36.9509C67.1093 36.9509 67.9593 36.0998 67.9593 35.0513C67.9593 34.0029 67.1083 33.1508 66.0598 33.1508C65.0102 33.1508 64.1603 34.0018 64.1603 35.0513C64.1603 36.1009 65.0102 36.9509 66.0598 36.9509Z" fill="#558FF5"/>
<path d="M68.2405 42.6151C69.377 42.6151 70.2978 41.6943 70.2978 40.5578C70.2978 39.4213 69.377 38.5005 68.2405 38.5005C67.104 38.5005 66.1832 39.4213 66.1832 40.5578C66.1832 41.6943 67.104 42.6151 68.2405 42.6151Z" fill="#558FF5"/>
<path d="M73.7082 48.7139C74.9677 48.7139 75.9887 47.6929 75.9887 46.4334C75.9887 45.1739 74.9677 44.1529 73.7082 44.1529C72.4487 44.1529 71.4277 45.1739 71.4277 46.4334C71.4277 47.6929 72.4487 48.7139 73.7082 48.7139Z" fill="#558FF5"/>
<path d="M73.088 54.6346C74.3619 54.6346 75.3942 53.6022 75.3942 52.3283C75.3942 51.0545 74.3619 50.0221 73.088 50.0221C71.8141 50.0221 70.7817 51.0545 70.7817 52.3283C70.7817 53.6022 71.8141 54.6346 73.088 54.6346Z" fill="#558FF5"/>
<path d="M71.2573 59.9178C72.3358 59.9178 73.2094 59.0442 73.2094 57.9657C73.2094 56.8872 72.3347 56.0136 71.2573 56.0136C70.1787 56.0136 69.3052 56.8872 69.3052 57.9657C69.3041 59.0432 70.1787 59.9178 71.2573 59.9178Z" fill="#558FF5"/>
<path d="M68.293 65.2601C69.4875 65.2601 70.4555 64.2921 70.4555 63.0976C70.4555 61.9032 69.4875 60.9352 68.293 60.9352C67.0986 60.9352 66.1306 61.9032 66.1306 63.0976C66.1306 64.2921 67.0986 65.2601 68.293 65.2601Z" fill="#558FF5"/>
<path d="M64.3266 69.5871C65.477 69.5871 66.4096 68.6545 66.4096 67.504C66.4096 66.3536 65.477 65.421 64.3266 65.421C63.1761 65.421 62.2435 66.3536 62.2435 67.504C62.2435 68.6534 63.1761 69.5871 64.3266 69.5871Z" fill="#558FF5"/>
<path d="M59.5317 73.1489C60.7261 73.1489 61.6941 72.1809 61.6941 70.9865C61.6941 69.7921 60.7261 68.8241 59.5317 68.8241C58.3372 68.8241 57.3693 69.7921 57.3693 70.9865C57.3693 72.1809 58.3372 73.1489 59.5317 73.1489Z" fill="#558FF5"/>
<path d="M54.1164 75.35C55.1949 75.35 56.0685 74.4754 56.0685 73.3979C56.0685 72.3194 55.1939 71.4458 54.1164 71.4458C53.0379 71.4458 52.1643 72.3194 52.1643 73.3979C52.1643 74.4765 53.0389 75.35 54.1164 75.35Z" fill="#558FF5"/>
<path d="M48.3192 76.9104C49.578 76.9104 50.5997 75.8898 50.5997 74.631C50.5997 73.3722 49.5791 72.3505 48.3192 72.3505C47.0604 72.3505 46.0387 73.3711 46.0387 74.631C46.0387 75.8898 47.0604 76.9104 48.3192 76.9104Z" fill="#558FF5"/>
<path d="M42.3921 76.9501C43.6724 76.9501 44.7112 75.9113 44.7112 74.631C44.7112 73.3496 43.6724 72.3119 42.3921 72.3119C41.1108 72.3119 40.073 73.3496 40.073 74.631C40.073 75.9113 41.1108 76.9501 42.3921 76.9501Z" fill="#558FF5"/>
<path d="M36.5947 75.4552C37.7312 75.4552 38.652 74.5344 38.652 73.3979C38.652 72.2614 37.7312 71.3407 36.5947 71.3407C35.4582 71.3407 34.5375 72.2614 34.5375 73.3979C34.5375 74.5344 35.4582 75.4552 36.5947 75.4552Z" fill="#558FF5"/>
<path d="M31.1795 73.267C32.4384 73.267 33.4589 72.2464 33.4589 70.9865C33.4589 69.7277 32.4384 68.7071 31.1795 68.7071C29.9207 68.7071 28.899 69.7277 28.899 70.9865C28.899 72.2464 29.9207 73.267 31.1795 73.267Z" fill="#558FF5"/>
<path d="M26.3847 69.7438C27.6221 69.7438 28.6255 68.7404 28.6255 67.503C28.6255 66.2656 27.6221 65.2622 26.3847 65.2622C25.1473 65.2622 24.1439 66.2656 24.1439 67.503C24.1439 68.7404 25.1473 69.7438 26.3847 69.7438Z" fill="#558FF5"/>
<path d="M22.4181 65.4178C23.6995 65.4178 24.7372 64.3801 24.7372 63.0987C24.7372 61.8173 23.6984 60.7796 22.4181 60.7796C21.1368 60.7796 20.099 61.8184 20.099 63.0987C20.099 64.379 21.1368 65.4178 22.4181 65.4178Z" fill="#558FF5"/>
<path d="M19.4541 60.3632C20.7784 60.3632 21.8516 59.29 21.8516 57.9657C21.8516 56.6414 20.7784 55.5683 19.4541 55.5683C18.1298 55.5683 17.0566 56.6414 17.0566 57.9657C17.0566 59.29 18.1298 60.3632 19.4541 60.3632Z" fill="#558FF5"/>
<path d="M17.6231 54.7129C18.9401 54.7129 20.0077 53.6453 20.0077 52.3283C20.0077 51.0113 18.9401 49.9437 17.6231 49.9437C16.3061 49.9437 15.2385 51.0113 15.2385 52.3283C15.2385 53.6453 16.3061 54.7129 17.6231 54.7129Z" fill="#558FF5"/>
<path d="M17.003 48.818C18.32 48.818 19.3876 47.7504 19.3876 46.4334C19.3876 45.1164 18.32 44.0488 17.003 44.0488C15.686 44.0488 14.6184 45.1164 14.6184 46.4334C14.6184 47.7504 15.686 48.818 17.003 48.818Z" fill="#558FF5"/>
<path d="M17.6231 42.923C18.9401 42.923 20.0077 41.8554 20.0077 40.5385C20.0077 39.2215 18.9401 38.1539 17.6231 38.1539C16.3061 38.1539 15.2385 39.2215 15.2385 40.5385C15.2385 41.8554 16.3061 42.923 17.6231 42.923Z" fill="#558FF5"/>
<path d="M19.4541 37.2213C20.7355 37.2213 21.7732 36.1825 21.7732 34.9022C21.7732 33.6219 20.7344 32.583 19.4541 32.583C18.1728 32.583 17.135 33.6219 17.135 34.9022C17.135 36.1825 18.1738 37.2213 19.4541 37.2213Z" fill="#558FF5"/>
<path d="M22.4182 32.1398C23.7275 32.1398 24.7899 31.0785 24.7899 29.7681C24.7899 28.4578 23.7275 27.3964 22.4182 27.3964C21.1079 27.3964 20.0465 28.4578 20.0465 29.7681C20.0465 31.0785 21.1079 32.1398 22.4182 32.1398Z" fill="#558FF5"/>
<path d="M26.3845 27.7355C27.6944 27.7355 28.7563 26.6737 28.7563 25.3638C28.7563 24.054 27.6944 22.9921 26.3845 22.9921C25.0747 22.9921 24.0128 24.054 24.0128 25.3638C24.0128 26.6737 25.0747 27.7355 26.3845 27.7355Z" fill="#558FF5"/>
<path d="M31.1796 24.2509C32.4889 24.2509 33.5513 23.1885 33.5513 21.8792C33.5513 20.57 32.4899 19.5075 31.1796 19.5075C29.8693 19.5075 28.8079 20.5689 28.8079 21.8792C28.8079 23.1896 29.8693 24.2509 31.1796 24.2509Z" fill="#558FF5"/>
<path d="M36.5948 21.8535C37.9117 21.8535 38.9794 20.7858 38.9794 19.4689C38.9794 18.1519 37.9117 17.0843 36.5948 17.0843C35.2778 17.0843 34.2102 18.1519 34.2102 19.4689C34.2102 20.7858 35.2778 21.8535 36.5948 21.8535Z" fill="#558FF5"/>
<path d="M43.2865 20.4515C44.5044 19.9503 45.0852 18.5567 44.584 17.3389C44.0827 16.1211 42.6892 15.5402 41.4714 16.0415C40.2536 16.5427 39.6727 17.9363 40.1739 19.1541C40.6752 20.3719 42.0687 20.9528 43.2865 20.4515Z" fill="#558FF5"/>
<path d="M48.3191 20.6215C49.6361 20.6215 50.7037 19.5539 50.7037 18.2369C50.7037 16.9199 49.6361 15.8523 48.3191 15.8523C47.0022 15.8523 45.9346 16.9199 45.9346 18.2369C45.9346 19.5539 47.0022 20.6215 48.3191 20.6215Z" fill="#558FF5"/>
<path d="M54.1165 21.8664C55.4408 21.8664 56.5139 20.7932 56.5139 19.4689C56.5139 18.1446 55.4408 17.0714 54.1165 17.0714C52.7922 17.0714 51.719 18.1446 51.719 19.4689C51.719 20.7932 52.7922 21.8664 54.1165 21.8664Z" fill="#558FF5"/>
<path d="M59.5316 24.1984C60.813 24.1984 61.8508 23.1606 61.8508 21.8792C61.8508 20.5979 60.8119 19.5601 59.5316 19.5601C58.2503 19.5601 57.2125 20.5989 57.2125 21.8792C57.2125 23.1595 58.2503 24.1984 59.5316 24.1984Z" fill="#558FF5"/>
<path d="M64.3267 27.7613C65.651 27.7613 66.7241 26.6881 66.7241 25.3638C66.7241 24.0395 65.651 22.9663 64.3267 22.9663C63.0024 22.9663 61.9292 24.0395 61.9292 25.3638C61.9292 26.6881 63.0024 27.7613 64.3267 27.7613Z" fill="#558FF5"/>
<path d="M68.2931 32.1667C69.6174 32.1667 70.6905 31.0935 70.6905 29.7692C70.6905 28.4449 69.6174 27.3717 68.2931 27.3717C66.9688 27.3717 65.8956 28.4449 65.8956 29.7692C65.8956 31.0924 66.9688 32.1667 68.2931 32.1667Z" fill="#558FF5"/>
<path d="M71.2572 37.1816C72.516 37.1816 73.5377 36.161 73.5377 34.9022C73.5377 33.6434 72.5171 32.6228 71.2572 32.6228C69.9983 32.6228 68.9767 33.6434 68.9767 34.9022C68.9767 36.161 69.9973 37.1816 71.2572 37.1816Z" fill="#558FF5"/>
<path d="M73.088 42.9102C74.3979 42.9102 75.4597 41.8483 75.4597 40.5384C75.4597 39.2286 74.3979 38.1667 73.088 38.1667C71.7782 38.1667 70.7163 39.2286 70.7163 40.5384C70.7163 41.8483 71.7782 42.9102 73.088 42.9102Z" fill="#558FF5"/>
<path d="M78.4333 48.8051C79.7432 48.8051 80.8051 47.7433 80.8051 46.4334C80.8051 45.1236 79.7432 44.0617 78.4333 44.0617C77.1235 44.0617 76.0616 45.1236 76.0616 46.4334C76.0616 47.7433 77.1235 48.8051 78.4333 48.8051Z" fill="#558FF5"/>
<path d="M77.9011 54.6979C79.2039 54.6979 80.2599 53.6419 80.2599 52.3391C80.2599 51.0362 79.2039 49.9802 77.9011 49.9802C76.5982 49.9802 75.5422 51.0362 75.5422 52.3391C75.5433 53.6419 76.5993 54.6979 77.9011 54.6979Z" fill="#558FF5"/>
<path d="M76.7176 60.3773C77.9963 60.1687 78.8639 58.963 78.6553 57.6842C78.4467 56.4054 77.2409 55.5378 75.9622 55.7464C74.6834 55.955 73.8158 57.1608 74.0244 58.4396C74.233 59.7184 75.4388 60.5859 76.7176 60.3773Z" fill="#558FF5"/>
<path d="M73.7512 65.7966C75.0755 65.7966 76.1487 64.7235 76.1487 63.3992C76.1487 62.0749 75.0755 61.0017 73.7512 61.0017C72.4269 61.0017 71.3538 62.0749 71.3538 63.3992C71.3527 64.7235 72.4269 65.7966 73.7512 65.7966Z" fill="#558FF5"/>
<path d="M70.2654 70.5551C71.5682 70.5551 72.6243 69.499 72.6243 68.1962C72.6243 66.8935 71.5682 65.8374 70.2654 65.8374C68.9627 65.8374 67.9066 66.8935 67.9066 68.1962C67.9066 69.499 68.9627 70.5551 70.2654 70.5551Z" fill="#558FF5"/>
<path d="M65.9792 74.6535C67.282 74.6535 68.338 73.5975 68.338 72.2947C68.338 70.9919 67.282 69.9359 65.9792 69.9359C64.6764 69.9359 63.6204 70.9919 63.6204 72.2947C63.6204 73.5975 64.6764 74.6535 65.9792 74.6535Z" fill="#558FF5"/>
<path d="M61.0298 77.9589C62.3539 77.9589 63.4272 76.8856 63.4272 75.5615C63.4272 74.2374 62.3539 73.164 61.0298 73.164C59.7057 73.164 58.6323 74.2374 58.6323 75.5615C58.6323 76.8856 59.7057 77.9589 61.0298 77.9589Z" fill="#558FF5"/>
<path d="M55.5771 80.2373C56.8724 80.2373 57.923 79.1866 57.923 77.8913C57.923 76.596 56.8724 75.5453 55.5771 75.5453C54.2817 75.5453 53.2322 76.596 53.2322 77.8913C53.2322 79.1877 54.2817 80.2373 55.5771 80.2373Z" fill="#558FF5"/>
<path d="M49.7958 81.5701C51.0987 81.5701 52.1547 80.5141 52.1547 79.2113C52.1547 77.9085 51.0987 76.8525 49.7958 76.8525C48.493 76.8525 47.437 77.9085 47.437 79.2113C47.437 80.5141 48.493 81.5701 49.7958 81.5701Z" fill="#558FF5"/>
<path d="M43.872 81.8234C45.1673 81.8234 46.2168 80.7728 46.2168 79.4775C46.2168 78.1821 45.1673 77.1315 43.872 77.1315C42.5766 77.1315 41.526 78.1821 41.526 79.4775C41.526 80.7728 42.5766 81.8234 43.872 81.8234Z" fill="#558FF5"/>
<path d="M37.9953 80.9745C39.2616 80.9745 40.2886 79.9475 40.2886 78.6811C40.2886 77.4148 39.2616 76.3878 37.9953 76.3878C36.7289 76.3878 35.7019 77.4148 35.7019 78.6811C35.7019 79.9486 36.7289 80.9745 37.9953 80.9745Z" fill="#558FF5"/>
<path d="M32.3556 79.2338C33.6726 79.2338 34.7402 78.1662 34.7402 76.8492C34.7402 75.5323 33.6726 74.4647 32.3556 74.4647C31.0387 74.4647 29.9711 75.5323 29.9711 76.8492C29.9711 78.1662 31.0387 79.2338 32.3556 79.2338Z" fill="#558FF5"/>
<path d="M27.1336 76.3202C28.3931 76.3202 29.4141 75.2992 29.4141 74.0397C29.4141 72.7802 28.3931 71.7592 27.1336 71.7592C25.8742 71.7592 24.8531 72.7802 24.8531 74.0397C24.8531 75.2992 25.8742 76.3202 27.1336 76.3202Z" fill="#558FF5"/>
<path d="M22.4964 72.6478C23.7703 72.6478 24.8027 71.6154 24.8027 70.3416C24.8027 69.0677 23.7703 68.0353 22.4964 68.0353C21.2226 68.0353 20.1902 69.0677 20.1902 70.3416C20.1902 71.6154 21.2226 72.6478 22.4964 72.6478Z" fill="#558FF5"/>
<path d="M18.5956 68.1298C19.8404 68.1298 20.8492 67.121 20.8492 65.8761C20.8492 64.6312 19.8404 63.6224 18.5956 63.6224C17.3507 63.6224 16.3419 64.6312 16.3419 65.8761C16.3419 67.121 17.3507 68.1298 18.5956 68.1298Z" fill="#558FF5"/>
<path d="M15.5542 62.8164C16.6757 62.8164 17.5857 61.9075 17.5857 60.7849C17.5857 59.6624 16.6767 58.7534 15.5542 58.7534C14.4317 58.7534 13.5227 59.6624 13.5227 60.7849C13.5227 61.9075 14.4317 62.8164 15.5542 62.8164Z" fill="#558FF5"/>
<path d="M13.4701 57.3948C14.6645 57.3948 15.6325 56.4268 15.6325 55.2324C15.6325 54.0379 14.6645 53.0699 13.4701 53.0699C12.2756 53.0699 11.3076 54.0379 11.3076 55.2324C11.3076 56.4279 12.2756 57.3948 13.4701 57.3948Z" fill="#558FF5"/>
<path d="M12.4108 51.6522C13.6554 51.6522 14.6644 50.6433 14.6644 49.3986C14.6644 48.1539 13.6554 47.1449 12.4108 47.1449C11.1661 47.1449 10.1571 48.1539 10.1571 49.3986C10.1571 50.6433 11.1661 51.6522 12.4108 51.6522Z" fill="#558FF5"/>
<path d="M12.4107 45.6833C13.6342 45.6833 14.6258 44.6916 14.6258 43.4682C14.6258 42.2448 13.6342 41.2543 12.4107 41.2543C11.1873 41.2543 10.1968 42.2459 10.1968 43.4682C10.1968 44.6916 11.1884 45.6833 12.4107 45.6833Z" fill="#558FF5"/>
<path d="M13.47 39.7304C14.628 39.7304 15.5659 38.7914 15.5659 37.6345C15.5659 36.4765 14.6269 35.5375 13.47 35.5375C12.3121 35.5375 11.373 36.4765 11.373 37.6345C11.373 38.7914 12.3121 39.7304 13.47 39.7304Z" fill="#558FF5"/>
<path d="M15.5541 34.0082C16.6177 34.0082 17.4805 33.1454 17.4805 32.0819C17.4805 31.0184 16.6187 30.1555 15.5541 30.1555C14.4896 30.1555 13.6278 31.0184 13.6278 32.0819C13.6278 33.1454 14.4896 34.0082 15.5541 34.0082Z" fill="#558FF5"/>
<path d="M18.5955 29.1135C19.7674 29.1135 20.7182 28.1627 20.7182 26.9908C20.7182 25.8189 19.7674 24.868 18.5955 24.868C17.4236 24.868 16.4728 25.8189 16.4728 26.9908C16.4728 28.1637 17.4225 29.1135 18.5955 29.1135Z" fill="#558FF5"/>
<path d="M22.4965 24.7006C23.6974 24.7006 24.6718 23.7273 24.6718 22.5253C24.6718 21.3234 23.6984 20.35 22.4965 20.35C21.2956 20.35 20.3212 21.3234 20.3212 22.5253C20.3212 23.7273 21.2956 24.7006 22.4965 24.7006Z" fill="#558FF5"/>
<path d="M27.1337 20.9509C28.3061 20.9509 29.2564 20.0006 29.2564 18.8282C29.2564 17.6559 28.3061 16.7055 27.1337 16.7055C25.9614 16.7055 25.011 17.6559 25.011 18.8282C25.011 20.0006 25.9614 20.9509 27.1337 20.9509Z" fill="#558FF5"/>
<path d="M32.3556 17.9439C33.4192 17.9439 34.282 17.0811 34.282 16.0176C34.282 14.954 33.4192 14.0912 32.3556 14.0912C31.2921 14.0912 30.4293 14.954 30.4293 16.0176C30.4293 17.0811 31.2911 17.9439 32.3556 17.9439Z" fill="#558FF5"/>
<path d="M37.9953 16.2826C39.1534 16.2826 40.0923 15.3438 40.0923 14.1857C40.0923 13.0275 39.1534 12.0887 37.9953 12.0887C36.8371 12.0887 35.8983 13.0275 35.8983 14.1857C35.8983 15.3438 36.8371 16.2826 37.9953 16.2826Z" fill="#558FF5"/>
<path d="M43.872 15.6033C45.0954 15.6033 46.0859 14.6117 46.0859 13.3894C46.0859 12.166 45.0943 11.1743 43.872 11.1743C42.6486 11.1743 41.657 12.166 41.657 13.3894C41.657 14.6117 42.6486 15.6033 43.872 15.6033Z" fill="#558FF5"/>
<path d="M50.1727 15.886C51.4012 15.6856 52.2346 14.5273 52.0342 13.2988C51.8338 12.0703 50.6755 11.2369 49.447 11.4373C48.2185 11.6377 47.3851 12.796 47.5855 14.0245C47.7859 15.253 48.9442 16.0864 50.1727 15.886Z" fill="#558FF5"/>
<path d="M55.577 17.1369C56.7714 17.1369 57.7394 16.1689 57.7394 14.9745C57.7394 13.78 56.7714 12.812 55.577 12.812C54.3825 12.812 53.4146 13.78 53.4146 14.9745C53.4146 16.1689 54.3836 17.1369 55.577 17.1369Z" fill="#558FF5"/>
<path d="M61.0299 19.6642C62.3327 19.6642 63.3887 18.6082 63.3887 17.3054C63.3887 16.0025 62.3327 14.9465 61.0299 14.9465C59.727 14.9465 58.671 16.0025 58.671 17.3054C58.671 18.6082 59.727 19.6642 61.0299 19.6642Z" fill="#558FF5"/>
<path d="M66.3592 22.7948C67.5877 22.5944 68.4211 21.4361 68.2207 20.2076C68.0203 18.9791 66.862 18.1457 65.6335 18.3461C64.4051 18.5464 63.5716 19.7048 63.772 20.9332C63.9724 22.1617 65.1307 22.9952 66.3592 22.7948Z" fill="#558FF5"/>
<path d="M70.2656 26.9768C71.5394 26.9768 72.5718 25.9444 72.5718 24.6706C72.5718 23.3967 71.5394 22.3643 70.2656 22.3643C68.9917 22.3643 67.9594 23.3967 67.9594 24.6706C67.9594 25.9444 68.9917 26.9768 70.2656 26.9768Z" fill="#558FF5"/>
<path d="M73.7512 31.7481C75.0107 31.7481 76.0317 30.7271 76.0317 29.4676C76.0317 28.2081 75.0107 27.1871 73.7512 27.1871C72.4917 27.1871 71.4707 28.2081 71.4707 29.4676C71.4707 30.7271 72.4917 31.7481 73.7512 31.7481Z" fill="#558FF5"/>
<path d="M76.3235 37.1955C77.6405 37.1955 78.7081 36.1279 78.7081 34.8109C78.7081 33.494 77.6405 32.4264 76.3235 32.4264C75.0066 32.4264 73.939 33.494 73.939 34.8109C73.939 36.1279 75.0066 37.1955 76.3235 37.1955Z" fill="#558FF5"/>
<path d="M77.9011 42.82C79.1675 42.82 80.1945 41.793 80.1945 40.5267C80.1945 39.2603 79.1675 38.2333 77.9011 38.2333C76.6348 38.2333 75.6078 39.2603 75.6078 40.5267C75.6078 41.793 76.6348 42.82 77.9011 42.82Z" fill="#558FF5"/>
<path d="M83.1586 48.4649C84.2801 48.4649 85.189 47.5559 85.189 46.4334C85.189 45.3119 84.2801 44.4019 83.1586 44.4019C82.0371 44.4019 81.1271 45.3109 81.1271 46.4334C81.1271 47.5549 82.0371 48.4649 83.1586 48.4649Z" fill="#558FF5"/>
<path d="M82.6929 54.3523C83.8001 54.3523 84.6976 53.4548 84.6976 52.3477C84.6976 51.2405 83.8001 50.343 82.6929 50.343C81.5857 50.343 80.6882 51.2405 80.6882 52.3477C80.6882 53.4548 81.5857 54.3523 82.6929 54.3523Z" fill="#558FF5"/>
<path d="M81.3086 60.448C82.5964 60.448 83.6406 59.4038 83.6406 58.116C83.6406 56.8282 82.5964 55.784 81.3086 55.784C80.0208 55.784 78.9766 56.8282 78.9766 58.116C78.9766 59.4038 80.0208 60.448 81.3086 60.448Z" fill="#558FF5"/>
<path d="M79.0387 65.8235C80.2685 65.8235 81.2666 64.8265 81.2666 63.5956C81.2666 62.3657 80.2696 61.3677 79.0387 61.3677C77.8088 61.3677 76.8108 62.3646 76.8108 63.5956C76.8108 64.8254 77.8078 65.8235 79.0387 65.8235Z" fill="#558FF5"/>
<path d="M75.9384 70.9994C77.2337 70.9994 78.2843 69.9488 78.2843 68.6535C78.2843 67.3581 77.2348 66.3075 75.9384 66.3075C74.6431 66.3075 73.5935 67.3581 73.5935 68.6535C73.5935 69.9488 74.6431 70.9994 75.9384 70.9994Z" fill="#558FF5"/>
<path d="M72.0868 75.5357C73.3966 75.5357 74.4585 74.4738 74.4585 73.1639C74.4585 71.8541 73.3966 70.7922 72.0868 70.7922C70.7769 70.7922 69.7151 71.8541 69.7151 73.1639C69.7151 74.4738 70.7769 75.5357 72.0868 75.5357Z" fill="#558FF5"/>
<path d="M67.575 79.3626C68.8703 79.3626 69.9209 78.312 69.9209 77.0167C69.9209 75.7214 68.8714 74.6707 67.575 74.6707C66.2797 74.6707 65.2301 75.7214 65.2301 77.0167C65.2301 78.312 66.2797 79.3626 67.575 79.3626Z" fill="#558FF5"/>
<path d="M62.5172 82.3439C63.7471 82.3439 64.7451 81.3469 64.7451 80.116C64.7451 78.8861 63.7481 77.8881 62.5172 77.8881C61.2873 77.8881 60.2893 78.885 60.2893 80.116C60.2904 81.3469 61.2873 82.3439 62.5172 82.3439Z" fill="#558FF5"/>
<path d="M57.0377 84.7188C58.3255 84.7188 59.3697 83.6746 59.3697 82.3868C59.3697 81.099 58.3255 80.0548 57.0377 80.0548C55.7499 80.0548 54.7057 81.099 54.7057 82.3868C54.7046 83.6746 55.7488 84.7188 57.0377 84.7188Z" fill="#558FF5"/>
<path d="M52.0413 85.6283C53.0649 85.2065 53.5528 84.0347 53.131 83.011C52.7092 81.9873 51.5374 81.4994 50.5137 81.9213C49.49 82.3431 49.0021 83.5149 49.4239 84.5386C49.8458 85.5623 51.0176 86.0502 52.0413 85.6283Z" fill="#558FF5"/>
<path d="M46.142 86.1129C47.1785 85.6835 47.671 84.4956 47.2418 83.4595C46.8127 82.4235 45.6245 81.9317 44.5879 82.3611C43.5513 82.7904 43.0588 83.9784 43.488 85.0144C43.9171 86.0505 45.1054 86.5423 46.142 86.1129Z" fill="#558FF5"/>
<path d="M39.4419 85.6182C40.4625 85.6182 41.2899 84.7907 41.2899 83.7702C41.2899 82.7496 40.4625 81.9221 39.4419 81.9221C38.4213 81.9221 37.5939 82.7496 37.5939 83.7702C37.5939 84.7907 38.4213 85.6182 39.4419 85.6182Z" fill="#558FF5"/>
<path d="M33.6735 84.5224C34.8529 84.5224 35.8091 83.5663 35.8091 82.3868C35.8091 81.2074 34.8529 80.2512 33.6735 80.2512C32.4941 80.2512 31.5378 81.2074 31.5378 82.3868C31.5378 83.5663 32.4941 84.5224 33.6735 84.5224Z" fill="#558FF5"/>
<path d="M28.1928 82.0166C29.2424 82.0166 30.0924 81.1656 30.0924 80.1171C30.0924 79.0675 29.2413 78.2165 28.1928 78.2165C27.1433 78.2165 26.2933 79.0675 26.2933 80.1171C26.2933 81.1656 27.1443 82.0166 28.1928 82.0166Z" fill="#558FF5"/>
<path d="M23.1349 79.0213C24.2421 79.0213 25.1396 78.1238 25.1396 77.0167C25.1396 75.9095 24.2421 75.012 23.1349 75.012C22.0278 75.012 21.1302 75.9095 21.1302 77.0167C21.1302 78.1238 22.0278 79.0213 23.1349 79.0213Z" fill="#558FF5"/>
<path d="M18.9439 75.1361C20.0226 74.9603 20.7546 73.9432 20.5787 72.8645C20.4028 71.7858 19.3858 71.0539 18.3071 71.2297C17.2284 71.4056 16.4964 72.4226 16.6723 73.5013C16.8481 74.58 17.8652 75.312 18.9439 75.1361Z" fill="#558FF5"/>
<path d="M14.7718 70.4489C15.7635 70.4489 16.5673 69.6451 16.5673 68.6535C16.5673 67.6618 15.7635 66.858 14.7718 66.858C13.7802 66.858 12.9764 67.6618 12.9764 68.6535C12.9775 69.6451 13.7813 70.4489 14.7718 70.4489Z" fill="#558FF5"/>
<path d="M11.6725 65.6271C12.794 65.6271 13.704 64.7181 13.704 63.5956C13.704 62.4741 12.795 61.5641 11.6725 61.5641C10.55 61.5641 9.64099 62.473 9.64099 63.5956C9.64206 64.717 10.551 65.6271 11.6725 65.6271Z" fill="#558FF5"/>
<path d="M9.40274 59.7139C10.2859 59.7139 11.0018 58.998 11.0018 58.1149C11.0018 57.2318 10.2859 56.5159 9.40274 56.5159C8.51963 56.5159 7.80371 57.2318 7.80371 58.1149C7.80371 58.998 8.51963 59.7139 9.40274 59.7139Z" fill="#558FF5"/>
<path d="M8.28851 54.0457C9.21689 53.8944 9.84689 53.0192 9.69564 52.0908C9.54439 51.1625 8.66917 50.5325 7.74079 50.6837C6.81241 50.835 6.18243 51.7102 6.33368 52.6386C6.48493 53.567 7.36013 54.1969 8.28851 54.0457Z" fill="#558FF5"/>
<path d="M7.55258 48.1633C8.50771 48.1633 9.28254 47.3885 9.28254 46.4334C9.28254 45.4783 8.50771 44.7034 7.55258 44.7034C6.59746 44.7034 5.82263 45.4783 5.82263 46.4334C5.82263 47.3885 6.59746 48.1633 7.55258 48.1633Z" fill="#558FF5"/>
<path d="M8.01827 42.0141C8.84354 42.0141 9.51214 41.3455 9.51214 40.5203C9.51214 39.695 8.84354 39.0264 8.01827 39.0264C7.193 39.0264 6.52441 39.695 6.52441 40.5203C6.52441 41.3444 7.193 42.0141 8.01827 42.0141Z" fill="#558FF5"/>
<path d="M9.40284 35.9968C10.0907 35.9968 10.6477 35.4398 10.6477 34.7519C10.6477 34.064 10.0907 33.507 9.40284 33.507C8.71494 33.507 8.15796 34.064 8.15796 34.7519C8.15796 35.4387 8.71494 35.9968 9.40284 35.9968Z" fill="#558FF5"/>
<path d="M11.6726 30.9089C12.5772 30.9089 13.3102 30.1759 13.3102 29.2712C13.3102 28.3666 12.5772 27.6336 11.6726 27.6336C10.7679 27.6336 10.0349 28.3666 10.0349 29.2712C10.0349 30.1759 10.7679 30.9089 11.6726 30.9089Z" fill="#558FF5"/>
<path d="M14.7718 25.3799C15.416 25.3799 15.9383 24.8576 15.9383 24.2134C15.9383 23.5691 15.416 23.0468 14.7718 23.0468C14.1275 23.0468 13.6052 23.5691 13.6052 24.2134C13.6052 24.8576 14.1275 25.3799 14.7718 25.3799Z" fill="#558FF5"/>
<path d="M18.6244 20.9863C19.3338 20.9863 19.909 20.4111 19.909 19.7018C19.909 18.9924 19.3338 18.4172 18.6244 18.4172C17.9151 18.4172 17.3398 18.9924 17.3398 19.7018C17.3409 20.4122 17.9151 20.9863 18.6244 20.9863Z" fill="#558FF5"/>
<path d="M23.1349 17.0167C23.7792 17.0167 24.3015 16.4944 24.3015 15.8502C24.3015 15.2059 23.7792 14.6836 23.1349 14.6836C22.4907 14.6836 21.9684 15.2059 21.9684 15.8502C21.9684 16.4944 22.4907 17.0167 23.1349 17.0167Z" fill="#558FF5"/>
<path d="M28.1928 14.3885C29.0975 14.3885 29.8305 13.6555 29.8305 12.7509C29.8305 11.8462 29.0975 11.1132 28.1928 11.1132C27.2882 11.1132 26.5552 11.8462 26.5552 12.7509C26.5552 13.6555 27.2892 14.3885 28.1928 14.3885Z" fill="#558FF5"/>
<path d="M33.6736 11.7249C34.3615 11.7249 34.9184 11.1679 34.9184 10.48C34.9184 9.79212 34.3615 9.23514 33.6736 9.23514C32.9857 9.23514 32.4287 9.79212 32.4287 10.48C32.4287 11.1679 32.9868 11.7249 33.6736 11.7249Z" fill="#558FF5"/>
<path d="M39.4419 10.5895C40.2672 10.5895 40.9357 9.92087 40.9357 9.0956C40.9357 8.27033 40.2672 7.60175 39.4419 7.60175C38.6166 7.60175 37.948 8.27033 37.948 9.0956C37.948 9.92087 38.6166 10.5895 39.4419 10.5895Z" fill="#558FF5"/>
<path d="M45.3551 10.3598C46.3105 10.3598 47.085 9.58525 47.085 8.62982C47.085 7.6744 46.3105 6.89987 45.3551 6.89987C44.3996 6.89987 43.6251 7.6744 43.6251 8.62982C43.6251 9.58525 44.3996 10.3598 45.3551 10.3598Z" fill="#558FF5"/>
<path d="M51.2693 10.7998C52.2105 10.7998 52.9724 10.0368 52.9724 9.09668C52.9724 8.15551 52.2094 7.39355 51.2693 7.39355C50.3281 7.39355 49.5662 8.15659 49.5662 9.09668C49.5662 10.0368 50.3281 10.7998 51.2693 10.7998Z" fill="#558FF5"/>
<path d="M57.0375 12.0801C57.9206 12.0801 58.6365 11.3642 58.6365 10.4811C58.6365 9.59796 57.9206 8.88205 57.0375 8.88205C56.1544 8.88205 55.4385 9.59796 55.4385 10.4811C55.4385 11.3642 56.1544 12.0801 57.0375 12.0801Z" fill="#558FF5"/>
<path d="M62.5173 14.7813C63.6387 14.7813 64.5488 13.8723 64.5488 12.7498C64.5488 11.6272 63.6398 10.7183 62.5173 10.7183C61.3958 10.7183 60.4868 11.6272 60.4868 12.7498C60.4868 13.8723 61.3958 14.7813 62.5173 14.7813Z" fill="#558FF5"/>
<path d="M67.5751 17.6456C68.5667 17.6456 69.3705 16.8418 69.3705 15.8502C69.3705 14.8586 68.5667 14.0547 67.5751 14.0547C66.5835 14.0547 65.7797 14.8586 65.7797 15.8502C65.7797 16.8418 66.5845 17.6456 67.5751 17.6456Z" fill="#558FF5"/>
<path d="M72.0867 21.6818C73.1792 21.6818 74.0656 20.7964 74.0656 19.7028C74.0656 18.6103 73.1792 17.7239 72.0867 17.7239C70.9942 17.7239 70.1078 18.6093 70.1078 19.7028C70.1078 20.7953 70.9931 21.6818 72.0867 21.6818Z" fill="#558FF5"/>
<path d="M75.9384 26.218C77.0456 26.218 77.9431 25.3205 77.9431 24.2134C77.9431 23.1062 77.0456 22.2087 75.9384 22.2087C74.8313 22.2087 73.9337 23.1062 73.9337 24.2134C73.9337 25.3205 74.8313 26.218 75.9384 26.218Z" fill="#558FF5"/>
<path d="M79.0387 31.1708C80.0882 31.1708 80.9393 30.3197 80.9393 29.2713C80.9393 28.2228 80.0882 27.3717 79.0387 27.3717C77.9891 27.3717 77.1392 28.2228 77.1392 29.2713C77.1392 30.3197 77.9891 31.1708 79.0387 31.1708Z" fill="#558FF5"/>
<path d="M81.3085 36.8875C82.4879 36.8875 83.4441 35.9313 83.4441 34.7519C83.4441 33.5725 82.4879 32.6163 81.3085 32.6163C80.1291 32.6163 79.1729 33.5725 79.1729 34.7519C79.1729 35.9313 80.1291 36.8875 81.3085 36.8875Z" fill="#558FF5"/>
<path d="M82.6928 42.3682C83.7135 42.3682 84.5409 41.5408 84.5409 40.5202C84.5409 39.4996 83.7135 38.6722 82.6928 38.6722C81.6722 38.6722 80.8448 39.4996 80.8448 40.5202C80.8448 41.5408 81.6722 42.3682 82.6928 42.3682Z" fill="#558FF5"/>
<path d="M87.8839 47.7963C88.6362 47.7963 89.2469 47.1868 89.2469 46.4334C89.2469 45.6811 88.6362 45.0705 87.8839 45.0705C87.1316 45.0705 86.521 45.6801 86.521 46.4334C86.521 47.1857 87.1316 47.7963 87.8839 47.7963Z" fill="#558FF5"/>
<path d="M87.4695 53.6752C88.2003 53.6752 88.7927 53.0828 88.7927 52.352C88.7927 51.6212 88.2003 51.0287 87.4695 51.0287C86.7387 51.0287 86.1462 51.6212 86.1462 52.352C86.1462 53.0828 86.7387 53.6752 87.4695 53.6752Z" fill="#558FF5"/>
<path d="M86.2365 60.082C87.3 60.082 88.1629 59.2192 88.1629 58.1557C88.1629 57.0921 87.3 56.2293 86.2365 56.2293C85.173 56.2293 84.3102 57.0921 84.3102 58.1557C84.3102 59.2192 85.173 60.082 86.2365 60.082Z" fill="#558FF5"/>
<path d="M84.2071 65.4608C85.1622 65.4608 85.9371 64.6859 85.9371 63.7308C85.9371 62.7757 85.1622 62.0009 84.2071 62.0009C83.252 62.0009 82.4772 62.7757 82.4772 63.7308C82.4772 64.687 83.252 65.4608 84.2071 65.4608Z" fill="#558FF5"/>
<path d="M81.4211 70.6731C82.3617 70.6731 83.1242 69.9106 83.1242 68.97C83.1242 68.0294 82.3617 67.2669 81.4211 67.2669C80.4805 67.2669 79.718 68.0294 79.718 68.97C79.718 69.9106 80.4805 70.6731 81.4211 70.6731Z" fill="#558FF5"/>
<path d="M77.9343 75.0152C78.6222 75.0152 79.1792 74.4582 79.1792 73.7703C79.1792 73.0824 78.6222 72.5254 77.9343 72.5254C77.2464 72.5254 76.6895 73.0824 76.6895 73.7703C76.6895 74.4582 77.2464 75.0152 77.9343 75.0152Z" fill="#558FF5"/>
<path d="M73.8123 79.8338C74.8039 79.8338 75.6077 79.03 75.6077 78.0383C75.6077 77.0467 74.8039 76.2429 73.8123 76.2429C72.8207 76.2429 72.0168 77.0467 72.0168 78.0383C72.0168 79.03 72.8207 79.8338 73.8123 79.8338Z" fill="#558FF5"/>
<path d="M69.1377 83.3945C70.0783 83.3945 70.8408 82.632 70.8408 81.6914C70.8408 80.7508 70.0783 79.9883 69.1377 79.9883C68.1971 79.9883 67.4346 80.7508 67.4346 81.6914C67.4346 82.632 68.1971 83.3945 69.1377 83.3945Z" fill="#558FF5"/>
<path d="M63.9992 86.086C64.788 86.086 65.4276 85.4464 65.4276 84.6576C65.4276 83.8688 64.788 83.2292 63.9992 83.2292C63.2104 83.2292 62.5708 83.8688 62.5708 84.6576C62.5708 85.4464 63.2104 86.086 63.9992 86.086Z" fill="#558FF5"/>
<path d="M58.497 88.6101C59.4525 88.6101 60.227 87.8356 60.227 86.8802C60.227 85.9248 59.4525 85.1502 58.497 85.1502C57.5416 85.1502 56.7671 85.9248 56.7671 86.8802C56.7671 87.8356 57.5416 88.6101 58.497 88.6101Z" fill="#558FF5"/>
<path d="M52.7406 89.6393C53.4714 89.6393 54.0638 89.0469 54.0638 88.3161C54.0638 87.5853 53.4714 86.9929 52.7406 86.9929C52.0098 86.9929 51.4174 87.5853 51.4174 88.3161C51.4174 89.0469 52.0098 89.6393 52.7406 89.6393Z" fill="#558FF5"/>
<path d="M46.8392 90.2982C47.5915 90.2982 48.2022 89.6887 48.2022 88.9353C48.2022 88.183 47.5915 87.5724 46.8392 87.5724C46.0869 87.5724 45.4763 88.1819 45.4763 88.9353C45.4774 89.6887 46.0869 90.2982 46.8392 90.2982Z" fill="#558FF5"/>
<path d="M40.9101 90.0139C41.6195 90.0139 42.1946 89.4387 42.1946 88.7293C42.1946 88.0198 41.6195 87.4447 40.9101 87.4447C40.2006 87.4447 39.6255 88.0198 39.6255 88.7293C39.6255 89.4387 40.2006 90.0139 40.9101 90.0139Z" fill="#558FF5"/>
<path d="M35.0665 89.5459C36.0871 89.5459 36.9145 88.7185 36.9145 87.6979C36.9145 86.6773 36.0871 85.851 35.0665 85.851C34.0459 85.851 33.2185 86.6784 33.2185 87.6979C33.2196 88.7185 34.047 89.5459 35.0665 89.5459Z" fill="#558FF5"/>
<path d="M29.4237 87.1496C30.1331 87.1496 30.7083 86.5743 30.7083 85.865C30.7083 85.1556 30.1331 84.5804 29.4237 84.5804C28.7144 84.5804 28.1392 85.1556 28.1392 85.865C28.1402 86.5743 28.7154 87.1496 29.4237 87.1496Z" fill="#558FF5"/>
<path d="M24.0912 84.076C24.5398 84.076 24.9036 83.7122 24.9036 83.2636C24.9036 82.815 24.5398 82.4512 24.0912 82.4512C23.6426 82.4512 23.2788 82.815 23.2788 83.2636C23.2788 83.7122 23.6426 84.076 24.0912 84.076Z" fill="#558FF5"/>
<path d="M19.1729 80.9155C19.7084 80.9155 20.1431 80.4808 20.1431 79.9453C20.1431 79.4098 19.7095 78.9752 19.1729 78.9752C18.6374 78.9752 18.2028 79.4087 18.2028 79.9453C18.2028 80.4819 18.6374 80.9155 19.1729 80.9155Z" fill="#558FF5"/>
<path d="M14.7632 76.9061C15.2773 76.9061 15.6937 76.4897 15.6937 75.9757C15.6937 75.4616 15.2773 75.0452 14.7632 75.0452C14.2492 75.0452 13.8328 75.4616 13.8328 75.9757C13.8328 76.4897 14.2492 76.9061 14.7632 76.9061Z" fill="#558FF5"/>
<path d="M10.9492 72.1123C11.3258 72.1123 11.6306 71.8075 11.6306 71.4308C11.6306 71.0541 11.3258 70.7493 10.9492 70.7493C10.5725 70.7493 10.2677 71.0541 10.2677 71.4308C10.2677 71.8075 10.5735 72.1123 10.9492 72.1123Z" fill="#558FF5"/>
<path d="M7.80477 67.4869C8.40575 67.4869 8.8919 66.9997 8.8919 66.3998C8.8919 65.7988 8.40468 65.3116 7.80477 65.3116C7.2038 65.3116 6.71765 65.7988 6.71765 66.3998C6.71765 66.9997 7.20487 67.4869 7.80477 67.4869Z" fill="#558FF5"/>
<path d="M5.39228 61.5426C5.7035 61.5426 5.95569 61.2904 5.95569 60.9792C5.95569 60.6679 5.7035 60.4157 5.39228 60.4157C5.08106 60.4157 4.82886 60.6679 4.82886 60.9792C4.82886 61.2904 5.08106 61.5426 5.39228 61.5426Z" fill="#558FF5"/>
<path d="M3.75673 56.0876C4.2054 56.0876 4.56913 55.7239 4.56913 55.2753C4.56913 54.8266 4.2054 54.4629 3.75673 54.4629C3.30806 54.4629 2.94434 54.8266 2.94434 55.2753C2.94434 55.7239 3.30806 56.0876 3.75673 56.0876Z" fill="#558FF5"/>
<path d="M2.93043 50.3301C3.4443 50.3301 3.86087 49.9135 3.86087 49.3997C3.86087 48.8858 3.4443 48.4692 2.93043 48.4692C2.41656 48.4692 2 48.8858 2 49.3997C2 49.9135 2.41656 50.3301 2.93043 50.3301Z" fill="#558FF5"/>
<path d="M2.93046 44.3182C3.40051 44.3182 3.78256 43.9372 3.78256 43.4661C3.78256 42.996 3.40158 42.614 2.93046 42.614C2.46041 42.614 2.07837 42.995 2.07837 43.4661C2.07944 43.9372 2.46041 44.3182 2.93046 44.3182Z" fill="#558FF5"/>
<path d="M3.75678 38.273C4.13346 38.273 4.43823 37.9682 4.43823 37.5915C4.43823 37.2149 4.13346 36.9101 3.75678 36.9101C3.38009 36.9101 3.07532 37.2149 3.07532 37.5915C3.07532 37.9671 3.38009 38.273 3.75678 38.273Z" fill="#558FF5"/>
<path d="M5.39233 32.3201C5.63164 32.3201 5.82482 32.127 5.82482 31.8877C5.82482 31.6483 5.63164 31.4552 5.39233 31.4552C5.15408 31.4552 4.95984 31.6483 4.95984 31.8877C4.95984 32.127 5.15301 32.3201 5.39233 32.3201Z" fill="#558FF5"/>
<path d="M7.8048 27.3589C8.29738 27.3589 8.69553 26.9596 8.69553 26.4681C8.69553 25.9755 8.29631 25.5774 7.8048 25.5774C7.31221 25.5774 6.91406 25.9766 6.91406 26.4681C6.91406 26.9596 7.31328 27.3589 7.8048 27.3589Z" fill="#558FF5"/>
<path d="M19.173 13.5632C19.5272 13.5632 19.8148 13.2756 19.8148 12.9215C19.8148 12.5673 19.5272 12.2797 19.173 12.2797C18.8178 12.2797 18.5313 12.5673 18.5313 12.9215C18.5302 13.2756 18.8178 13.5632 19.173 13.5632Z" fill="#558FF5"/>
<path d="M24.0912 10.0743C24.352 10.0743 24.5634 9.86292 24.5634 9.60214C24.5634 9.34136 24.352 9.12994 24.0912 9.12994C23.8304 9.12994 23.619 9.34136 23.619 9.60214C23.6201 9.86292 23.8304 10.0743 24.0912 10.0743Z" fill="#558FF5"/>
<path d="M29.4238 7.09305C29.4743 7.09305 29.5151 7.05226 29.5151 7.00182C29.5151 6.95139 29.4743 6.91061 29.4238 6.91061C29.3734 6.91061 29.3315 6.95139 29.3315 7.00182C29.3326 7.05226 29.3734 7.09305 29.4238 7.09305Z" fill="#558FF5"/>
<path d="M35.0666 5.84929C35.4429 5.84929 35.748 5.54418 35.748 5.16782C35.748 4.79145 35.4429 4.48636 35.0666 4.48636C34.6902 4.48636 34.3851 4.79145 34.3851 5.16782C34.3851 5.54418 34.6902 5.84929 35.0666 5.84929Z" fill="#558FF5"/>
<path d="M40.91 4.98966C41.38 4.98966 41.7621 4.60869 41.7621 4.13757C41.7621 3.66752 41.3811 3.28546 40.91 3.28546C40.4388 3.28546 40.0579 3.66644 40.0579 4.13757C40.0579 4.60869 40.4399 4.98966 40.91 4.98966Z" fill="#558FF5"/>
<path d="M46.8393 4.86087C47.3531 4.86087 47.7697 4.4443 47.7697 3.93043C47.7697 3.41656 47.3531 3 46.8393 3C46.3254 3 45.9088 3.41656 45.9088 3.93043C45.9088 4.4443 46.3254 4.86087 46.8393 4.86087Z" fill="#558FF5"/>
<path d="M52.7406 5.44254C53.2321 5.44254 53.6313 5.04332 53.6313 4.55181C53.6313 4.06029 53.2321 3.66107 52.7406 3.66107C52.248 3.66107 51.8499 4.06029 51.8499 4.55181C51.8499 5.04332 52.248 5.44254 52.7406 5.44254Z" fill="#558FF5"/>
<path d="M58.4971 6.55005C58.8083 6.55005 59.0605 6.29785 59.0605 5.98663C59.0605 5.67541 58.8083 5.42322 58.4971 5.42322C58.1859 5.42322 57.9337 5.67541 57.9337 5.98663C57.9337 6.29785 58.1859 6.55005 58.4971 6.55005Z" fill="#558FF5"/>
<path d="M64.1707 9.26756C64.7633 9.17114 65.1655 8.61258 65.0691 8.01998C64.9727 7.42738 64.4141 7.02516 63.8215 7.12158C63.2289 7.21801 62.8267 7.77657 62.9231 8.36916C63.0196 8.96176 63.5781 9.36399 64.1707 9.26756Z" fill="#558FF5"/>
<path d="M69.1377 11.8569C69.514 11.8569 69.8191 11.5518 69.8191 11.1754C69.8191 10.7991 69.514 10.494 69.1377 10.494C68.7613 10.494 68.4562 10.7991 68.4562 11.1754C68.4562 11.5518 68.7613 11.8569 69.1377 11.8569Z" fill="#558FF5"/>
<path d="M73.8123 15.7589C74.3261 15.7589 74.7427 15.3424 74.7427 14.8285C74.7427 14.3146 74.3261 13.8981 73.8123 13.8981C73.2984 13.8981 72.8818 14.3146 72.8818 14.8285C72.8818 15.3424 73.2984 15.7589 73.8123 15.7589Z" fill="#558FF5"/>
<path d="M77.9345 20.0667C78.47 20.0667 78.9046 19.6331 78.9046 19.0965C78.9046 18.561 78.47 18.1264 77.9345 18.1264C77.399 18.1264 76.9644 18.561 76.9644 19.0965C76.9644 19.632 77.399 20.0667 77.9345 20.0667Z" fill="#558FF5"/>
<path d="M81.4212 25.3907C82.2465 25.3907 82.9151 24.7221 82.9151 23.8968C82.9151 23.0715 82.2465 22.403 81.4212 22.403C80.596 22.403 79.9274 23.0715 79.9274 23.8968C79.9284 24.7221 80.597 25.3907 81.4212 25.3907Z" fill="#558FF5"/>
<path d="M84.2072 30.4206C84.9166 30.4206 85.4918 29.8454 85.4918 29.136C85.4918 28.4265 84.9166 27.8514 84.2072 27.8514C83.4977 27.8514 82.9226 28.4265 82.9226 29.136C82.9226 29.8454 83.4977 30.4206 84.2072 30.4206Z" fill="#558FF5"/>
<path d="M86.2365 36.3488C87.1412 36.3488 87.8742 35.6159 87.8742 34.7112C87.8742 33.8065 87.1412 33.0735 86.2365 33.0735C85.3319 33.0735 84.5989 33.8065 84.5989 34.7112C84.5989 35.6159 85.3319 36.3488 86.2365 36.3488Z" fill="#558FF5"/>
<path d="M87.4696 41.6417C88.0921 41.6417 88.5964 41.1373 88.5964 40.5149C88.5964 39.8924 88.0921 39.388 87.4696 39.388C86.8472 39.388 86.3428 39.8924 86.3428 40.5149C86.3428 41.1373 86.8483 41.6417 87.4696 41.6417Z" fill="#558FF5"/>
<path d="M92.6089 46.9056C92.8697 46.9056 93.0811 46.6942 93.0811 46.4334C93.0811 46.1726 92.8697 45.9623 92.6089 45.9623C92.3481 45.9623 92.1367 46.1737 92.1367 46.4334C92.1378 46.6942 92.3492 46.9056 92.6089 46.9056Z" fill="#558FF5"/>
<path d="M92.2365 52.7887C92.4759 52.7887 92.6691 52.5956 92.6691 52.3563C92.6691 52.1169 92.4759 51.9238 92.2365 51.9238C91.9972 51.9238 91.8041 52.1169 91.8041 52.3563C91.8041 52.5945 91.9983 52.7887 92.2365 52.7887Z" fill="#558FF5"/>
<path d="M91.1249 59.3909C91.7902 59.3909 92.33 58.8511 92.33 58.1857C92.33 57.5203 91.7902 56.9805 91.1249 56.9805C90.4595 56.9805 89.9197 57.5203 89.9197 58.1857C89.9197 58.8511 90.4595 59.3909 91.1249 59.3909Z" fill="#558FF5"/>
<path d="M89.2907 64.7986C89.8262 64.7986 90.2609 64.3639 90.2609 63.8284C90.2609 63.2929 89.8273 62.8583 89.2907 62.8583C88.7552 62.8583 88.3217 63.2918 88.3217 63.8284C88.3217 64.3639 88.7552 64.7986 89.2907 64.7986Z" fill="#558FF5"/>
<path d="M86.7644 69.4594C86.909 69.4594 87.0263 69.3421 87.0263 69.1975C87.0263 69.0529 86.909 68.9357 86.7644 68.9357C86.6198 68.9357 86.5026 69.0529 86.5026 69.1975C86.5026 69.3421 86.6198 69.4594 86.7644 69.4594Z" fill="#558FF5"/>
<path d="M83.5847 74.7716C83.8959 74.7716 84.1481 74.5194 84.1481 74.2082C84.1481 73.897 83.8959 73.6448 83.5847 73.6448C83.2735 73.6448 83.0212 73.897 83.0212 74.2082C83.0212 74.5194 83.2735 74.7716 83.5847 74.7716Z" fill="#558FF5"/>
<path d="M79.8017 79.4227C80.1569 79.4227 80.4434 79.1351 80.4434 78.781C80.4434 78.4268 80.1558 78.1392 79.8017 78.1392C79.4475 78.1392 79.1599 78.4268 79.1599 78.781C79.1599 79.1351 79.4475 79.4227 79.8017 79.4227Z" fill="#558FF5"/>
<path d="M75.4758 84.0878C76.1637 84.0878 76.7207 83.5308 76.7207 82.8429C76.7207 82.155 76.1637 81.5981 75.4758 81.5981C74.7879 81.5981 74.231 82.155 74.231 82.8429C74.231 83.5308 74.789 84.0878 75.4758 84.0878Z" fill="#558FF5"/>
<path d="M70.6754 87.3792C71.2539 87.3792 71.7239 86.9102 71.7239 86.3307C71.7239 85.7523 71.2549 85.2822 70.6754 85.2822C70.097 85.2822 69.627 85.7512 69.627 86.3307C69.627 86.9102 70.0959 87.3792 70.6754 87.3792Z" fill="#558FF5"/>
<path d="M65.4749 89.8711C65.8516 89.8711 66.1564 89.5663 66.1564 89.1896C66.1564 88.813 65.8516 88.5082 65.4749 88.5082C65.0982 88.5082 64.7935 88.813 64.7935 89.1896C64.7935 89.5663 65.0993 89.8711 65.4749 89.8711Z" fill="#558FF5"/>
<path d="M59.9577 92.3437C60.4929 92.3437 60.9268 91.9098 60.9268 91.3746C60.9268 90.8394 60.4929 90.4055 59.9577 90.4055C59.4225 90.4055 58.9886 90.8394 58.9886 91.3746C58.9886 91.9098 59.4225 92.3437 59.9577 92.3437Z" fill="#558FF5"/>
<path d="M54.2099 93.1518C54.3762 93.1518 54.5115 93.0166 54.5115 92.8502C54.5115 92.6839 54.3762 92.5487 54.2099 92.5487C54.0436 92.5487 53.9083 92.6839 53.9083 92.8502C53.9083 93.0166 54.0436 93.1518 54.2099 93.1518Z" fill="#558FF5"/>
<path d="M48.3224 94.0651C48.5832 94.0651 48.7946 93.8536 48.7946 93.5939C48.7946 93.3332 48.5832 93.1217 48.3224 93.1217C48.0616 93.1217 47.8502 93.3332 47.8502 93.5939C47.8513 93.8547 48.0616 94.0651 48.3224 94.0651Z" fill="#558FF5"/>
<path d="M42.3889 93.9867C42.6057 93.9867 42.7817 93.8107 42.7817 93.5939C42.7817 93.3772 42.6057 93.2012 42.3889 93.2012C42.1721 93.2012 41.9961 93.3772 41.9961 93.5939C41.9961 93.8107 42.171 93.9867 42.3889 93.9867Z" fill="#558FF5"/>
<path d="M36.5013 93.0724C36.6247 93.0724 36.7245 92.9726 36.7245 92.8492C36.7245 92.7258 36.6247 92.626 36.5013 92.626C36.3779 92.626 36.2781 92.7258 36.2781 92.8492C36.2781 92.9737 36.3779 93.0724 36.5013 93.0724Z" fill="#558FF5"/>
<path d="M30.7535 92.2257C31.2235 92.2257 31.6056 91.8447 31.6056 91.3736C31.6056 90.9035 31.2246 90.5215 30.7535 90.5215C30.2824 90.5215 29.9014 90.9025 29.9014 91.3736C29.9014 91.8447 30.2834 92.2257 30.7535 92.2257Z" fill="#558FF5"/>
<path d="M25.2363 89.2294C25.2578 89.2294 25.2761 89.2122 25.2761 89.1897C25.2761 89.1682 25.2589 89.15 25.2363 89.15C25.2149 89.15 25.1967 89.1671 25.1967 89.1897C25.1967 89.2122 25.2138 89.2294 25.2363 89.2294Z" fill="#558FF5"/>
<path d="M20.0358 86.5926C20.1804 86.5926 20.2976 86.4754 20.2976 86.3307C20.2976 86.1861 20.1804 86.0689 20.0358 86.0689C19.8912 86.0689 19.7739 86.1861 19.7739 86.3307C19.7739 86.4754 19.8912 86.5926 20.0358 86.5926Z" fill="#558FF5"/>
<path d="M15.2354 83.1444C15.4017 83.1444 15.537 83.0092 15.537 82.8429C15.537 82.6765 15.4017 82.5413 15.2354 82.5413C15.0691 82.5413 14.9338 82.6765 14.9338 82.8429C14.9338 83.0092 15.068 83.1444 15.2354 83.1444Z" fill="#558FF5"/>
<path d="M7.12656 74.3788C7.221 74.3788 7.29719 74.3026 7.29719 74.2082C7.29719 74.1137 7.221 74.0375 7.12656 74.0375C7.03212 74.0375 6.95593 74.1137 6.95593 74.2082C6.95593 74.3026 7.03212 74.3788 7.12656 74.3788Z" fill="#558FF5"/>
<path d="M65.4749 3.93903C65.6195 3.93903 65.7367 3.82179 65.7367 3.67717C65.7367 3.53255 65.6195 3.41531 65.4749 3.41531C65.3303 3.41531 65.213 3.53255 65.213 3.67717C65.213 3.82179 65.3303 3.93903 65.4749 3.93903Z" fill="#558FF5"/>
<path d="M75.4758 10.1945C75.5702 10.1945 75.6464 10.1183 75.6464 10.0239C75.6464 9.92946 75.5702 9.85327 75.4758 9.85327C75.3814 9.85327 75.3052 9.92946 75.3052 10.0239C75.3062 10.1183 75.3824 10.1945 75.4758 10.1945Z" fill="#558FF5"/>
<path d="M79.8018 14.3874C79.9681 14.3874 80.1033 14.2522 80.1033 14.0859C80.1033 13.9195 79.9681 13.7843 79.8018 13.7843C79.6354 13.7843 79.5002 13.9195 79.5002 14.0859C79.5002 14.2522 79.6354 14.3874 79.8018 14.3874Z" fill="#558FF5"/>
<path d="M83.5846 18.9205C83.7295 18.9205 83.8465 18.8035 83.8465 18.6586C83.8465 18.5138 83.7295 18.3968 83.5846 18.3968C83.4397 18.3968 83.3228 18.5138 83.3228 18.6586C83.3228 18.8035 83.4397 18.9205 83.5846 18.9205Z" fill="#558FF5"/>
<path d="M86.7644 23.7079C86.7864 23.7079 86.8042 23.6901 86.8042 23.6682C86.8042 23.6462 86.7864 23.6285 86.7644 23.6285C86.7425 23.6285 86.7247 23.6462 86.7247 23.6682C86.7247 23.6901 86.7425 23.7079 86.7644 23.7079Z" fill="#558FF5"/>
<path d="M89.2907 29.5621C89.5799 29.5621 89.8144 29.3276 89.8144 29.0384C89.8144 28.7491 89.5799 28.5146 89.2907 28.5146C89.0014 28.5146 88.767 28.7491 88.767 29.0384C88.767 29.3276 89.0014 29.5621 89.2907 29.5621Z" fill="#558FF5"/>
<path d="M91.1248 35.5332C91.5949 35.5332 91.9769 35.1522 91.9769 34.6811C91.9769 34.2111 91.5959 33.829 91.1248 33.829C90.6548 33.829 90.2727 34.21 90.2727 34.6811C90.2727 35.1522 90.6548 35.5332 91.1248 35.5332Z" fill="#558FF5"/>
<path d="M92.2365 40.7338C92.3599 40.7338 92.4597 40.634 92.4597 40.5116C92.4597 40.3882 92.3599 40.2884 92.2365 40.2884C92.1131 40.2884 92.0133 40.3882 92.0133 40.5116C92.0144 40.634 92.1131 40.7338 92.2365 40.7338Z" fill="#558FF5"/>
<path d="M95.9841 58.5077C96.1504 58.5077 96.2856 58.3725 96.2856 58.2061C96.2856 58.0398 96.1504 57.9046 95.9841 57.9046C95.8177 57.9046 95.6825 58.0398 95.6825 58.2061C95.6825 58.3725 95.8177 58.5077 95.9841 58.5077Z" fill="#558FF5"/>
<path d="M94.3121 64.0323C94.3844 64.0323 94.443 63.9737 94.443 63.9014C94.443 63.8291 94.3844 63.7705 94.3121 63.7705C94.2398 63.7705 94.1812 63.8291 94.1812 63.9014C94.1812 63.9737 94.2398 64.0323 94.3121 64.0323Z" fill="#558FF5"/>
<path d="M77.0962 88.1594C77.4075 88.1594 77.6597 87.9072 77.6597 87.596C77.6597 87.2848 77.4075 87.0326 77.0962 87.0326C76.785 87.0326 76.5328 87.2848 76.5328 87.596C76.5328 87.9072 76.785 88.1594 77.0962 88.1594Z" fill="#558FF5"/>
<path d="M72.1973 91.2083C72.3421 91.2083 72.4591 91.0913 72.4591 90.9464C72.4591 90.8015 72.3421 90.6846 72.1973 90.6846C72.0524 90.6846 71.9354 90.8015 71.9354 90.9464C71.9354 91.0902 72.0524 91.2083 72.1973 91.2083Z" fill="#558FF5"/>
<path d="M61.4183 96C61.4906 96 61.5492 95.9414 61.5492 95.869C61.5492 95.7967 61.4906 95.7381 61.4183 95.7381C61.346 95.7381 61.2874 95.7967 61.2874 95.869C61.2874 95.9414 61.346 96 61.4183 96Z" fill="#558FF5"/>
<path d="M21.0982 92.4446C21.1196 92.4446 21.1379 92.4274 21.1379 92.4049C21.1379 92.3834 21.1207 92.3651 21.0982 92.3651C21.0767 92.3651 21.0585 92.3823 21.0585 92.4049C21.0595 92.4274 21.0767 92.4446 21.0982 92.4446Z" fill="#558FF5"/>
</svg>
